<svg width="800" height="800" viewBox="0 0 800 800" fill="none" xmlns="http://www.w3.org/2000/svg">
<path d="M433.333 300H233.333" stroke="#292D32" stroke-width="50" stroke-linecap="round" stroke-linejoin="round"/>
<path d="M733.333 365.663V434.333C733.333 452.667 718.667 467.663 700 468.33H634.663C598.663 468.33 565.667 441.997 562.667 405.997C560.667 384.997 568.663 365.33 582.663 351.663C594.997 338.997 612 331.665 630.667 331.665H700C718.667 332.332 733.333 347.33 733.333 365.663Z" stroke="#292D32" stroke-width="50" stroke-linecap="round" stroke-linejoin="round"/>
<path d="M582.666 351.667C568.666 365.333 560.666 385 562.666 406C565.666 442 598.667 468.333 634.667 468.333H700V516.666C700 616.666 633.333 683.333 533.333 683.333H233.333C133.333 683.333 66.6665 616.666 66.6665 516.666V283.333C66.6665 192.667 121.333 129.333 206.333 118.667C215 117.333 224 116.667 233.333 116.667H533.333C542 116.667 550.333 117 558.333 118.333C644.333 128.333 700 192 700 283.333V331.667H630.666C612 331.667 595 339 582.666 351.667Z" stroke="#292D32" stroke-width="50" stroke-linecap="round" stroke-linejoin="round"/>
</svg>
